<svg xmlns="http://www.w3.org/2000/svg" width="25" height="29" viewBox="0 0 25 29">
  <defs>
    <style>
      .cls-1 {
        fill: #fff;
        fill-rule: evenodd;
      }
    </style>
  </defs>
  <path id="fa-android" class="cls-1" d="M8.75,6.18A0.68,0.68,0,1,1,9.443,5.5,0.683,0.683,0,0,1,8.75,6.18Zm7.49,0a0.68,0.68,0,1,1,.674-0.68A0.687,0.687,0,0,1,16.241,6.18ZM1.828,9.388A1.806,1.806,0,0,0,0,11.167v7.5a1.81,1.81,0,0,0,1.828,1.8,1.8,1.8,0,0,0,1.81-1.8v-7.5A1.8,1.8,0,0,0,1.828,9.388ZM20.642,9.72H4.349V21.334A1.93,1.93,0,0,0,6.3,23.253H7.614l0.018,3.959a1.819,1.819,0,0,0,3.639,0V23.253H13.72v3.959a1.828,1.828,0,0,0,3.656,0V23.253h1.331a1.926,1.926,0,0,0,1.935-1.918V9.72ZM16.525,2.657l1.26-2.285A0.251,0.251,0,0,0,17.7.024a0.284,0.284,0,0,0-.355.1l-1.278,2.3a9.055,9.055,0,0,0-7.135,0L7.65,0.128a0.284,0.284,0,0,0-.355-0.1,0.251,0.251,0,0,0-.089.349l1.26,2.285A7.266,7.266,0,0,0,4.278,9.092H20.7A7.281,7.281,0,0,0,16.525,2.657Zm8.467,8.51a1.82,1.82,0,0,0-3.639,0v7.5a1.819,1.819,0,0,0,3.639,0v-7.5Z"/>
</svg>
