<svg xmlns="http://www.w3.org/2000/svg" width="25" height="29" viewBox="1 1 25 29">
  <defs>
    <style>
      .cls-1 {
        fill: #fff;
        fill-rule: evenodd;
      }
    </style>
  </defs>
  <path id="fa-apple" class="cls-1" d="M22.995,20.519A4.574,4.574,0,0,1,20.614,18.7a5.349,5.349,0,0,1-1.04-3.216,4.976,4.976,0,0,1,.98-2.985,9.429,9.429,0,0,1,1.718-1.7A7.522,7.522,0,0,0,20.7,9.356a5.676,5.676,0,0,0-3.21-.937,8.851,8.851,0,0,0-2.607.49,7.836,7.836,0,0,1-2.155.49,9.963,9.963,0,0,1-2.08-.433,10.345,10.345,0,0,0-2.668-.433A5.283,5.283,0,0,0,3.7,10.611,8.3,8.3,0,0,0,2,16a14.273,14.273,0,0,0,2.216,7.254C5.708,25.74,7.2,26.995,8.752,26.995a5.689,5.689,0,0,0,1.989-.49,6.066,6.066,0,0,1,2.14-.476,6.963,6.963,0,0,1,2.276.461,7.191,7.191,0,0,0,2.11.462c1.281,0,2.577-.937,3.874-2.827A14.084,14.084,0,0,0,22.995,20.519ZM17.328,3.6c0-.1-0.015-0.187-0.015-0.288C17.3,3.227,17.268,3.126,17.238,3A6.074,6.074,0,0,0,13.47,5.13a6.389,6.389,0,0,0-1.175,3.706,8.289,8.289,0,0,0,1.567-.245,4.29,4.29,0,0,0,1.628-1.038,5.912,5.912,0,0,0,1.4-1.99A5.318,5.318,0,0,0,17.328,3.6Z"/>
</svg>
