<svg xmlns="http://www.w3.org/2000/svg" width="22" height="18" viewBox="0 0 22 18">
  <defs>
    <style>
      .cls-1 {
        fill: #fff;
        fill-rule: evenodd;
      }
    </style>
  </defs>
  <path id="fa-check" class="cls-1" d="M21,4.124a1.336,1.336,0,0,0-.361-0.916L18.883,1.377a1.21,1.21,0,0,0-1.755,0L8.661,10.226,4.867,6.252a1.21,1.21,0,0,0-1.755,0L1.357,8.084a1.341,1.341,0,0,0,0,1.832l4.672,4.875,1.755,1.832a1.21,1.21,0,0,0,1.755,0l1.755-1.832L20.638,5.04A1.335,1.335,0,0,0,21,4.124Z"/>
</svg>
