<svg xmlns="http://www.w3.org/2000/svg" width="23" height="21" viewBox="0 0 23 21">
  <defs>
    <style>
      .cls-1 {
        fill: #fff;
        fill-rule: evenodd;
      }
    </style>
  </defs>
  <path id="fa-dribbble" class="cls-1" d="M13.336,18.754a8.226,8.226,0,0,1-8.778-1.339s0.117,0.082.2,0.15c1.641-3.744,6.707-5.6,6.707-5.6s0.039-.014.052-0.014A39.269,39.269,0,0,1,13.336,18.754ZM10.927,10.46c-0.1.041-.221,0.068-0.339,0.109a13.61,13.61,0,0,0-6.941,5.917h0A9.207,9.207,0,0,1,1.459,10.5a2.111,2.111,0,0,1,.013-0.287,30,30,0,0,0,8.765-1.271C10.484,9.449,10.718,9.954,10.927,10.46Zm-1.393-2.9A30.874,30.874,0,0,1,1.641,8.656,8.913,8.913,0,0,1,6.355,2.4,54.467,54.467,0,0,1,9.533,7.563Zm8.908,4.359a9.051,9.051,0,0,1-3.66,6.012,41.583,41.583,0,0,0-1.667-6.408A12.107,12.107,0,0,1,18.441,11.922ZM7.957,1.8a0.045,0.045,0,0,0-.026.014A0.025,0.025,0,0,1,7.957,1.8Zm7.684,1.981a9.289,9.289,0,0,1-4.454,3.238,44.036,44.036,0,0,0-3.2-5.22A8.157,8.157,0,0,1,15.641,3.778Zm2.9,6.627a19.072,19.072,0,0,0-5.952-.287c-0.065-.15-0.117-0.314-0.182-0.465-0.182-.437-0.378-0.874-0.573-1.3A11.209,11.209,0,0,0,16.6,4.8,9.255,9.255,0,0,1,18.545,10.405ZM20,10.5A10.26,10.26,0,0,0,10,.007,10.26,10.26,0,0,0,0,10.5,10.26,10.26,0,0,0,10,21,10.26,10.26,0,0,0,20,10.5Z"/>
</svg>
