<svg xmlns="http://www.w3.org/2000/svg" width="23" height="21" viewBox="0 0 23 21">
  <defs>
    <style>
      .cls-1 {
        fill: #fff;
        fill-rule: evenodd;
      }
    </style>
  </defs>
  <path id="fa-flickr" class="cls-1" d="M18.691,0.007H4.313A4.062,4.062,0,0,0,0,3.754V16.247A4.061,4.061,0,0,0,4.313,20H18.691A4.062,4.062,0,0,0,23,16.247V3.754A4.062,4.062,0,0,0,18.691.007ZM10.454,10A2.99,2.99,0,0,1,7.279,12.76,2.991,2.991,0,0,1,4.1,10,2.991,2.991,0,0,1,7.279,7.242,2.991,2.991,0,0,1,10.454,10ZM18.9,10a2.991,2.991,0,0,1-3.175,2.759A2.99,2.99,0,0,1,12.551,10a2.991,2.991,0,0,1,3.175-2.759A2.991,2.991,0,0,1,18.9,10Z"/>
</svg>
