<svg xmlns="http://www.w3.org/2000/svg" width="11" height="16" viewBox="0 0 11 16">
  <defs>
    <style>
      .cls-1 {
        fill-rule: evenodd;
      }
    </style>
  </defs>
  <path id="fa-angle-right_copia" data-name="fa-angle-right copia" class="cls-1" d="M11,8a0.516,0.516,0,0,0-.189-0.369l-8.8-7.473A0.711,0.711,0,0,0,1.571,0a0.711,0.711,0,0,0-.434.16l-0.945.8A0.517,0.517,0,0,0,0,1.327,0.517,0.517,0,0,0,.192,1.7L7.616,8,0.192,14.3A0.517,0.517,0,0,0,0,14.669a0.489,0.489,0,0,0,.189.369l0.945,0.8a0.711,0.711,0,0,0,.434.16,0.711,0.711,0,0,0,.434-0.16l8.8-7.473A0.516,0.516,0,0,0,11,8Z"/>
</svg>
