<svg xmlns="http://www.w3.org/2000/svg" width="23" height="21" viewBox="0 0 23 21">
  <defs>
    <style>
      .cls-1 {
        fill: #fff;
        fill-rule: evenodd;
      }
    </style>
  </defs>
  <path id="fa-twitter" class="cls-1" d="M23,2.377a8.968,8.968,0,0,1-2.716.781A4.985,4.985,0,0,0,22.362.377,8.919,8.919,0,0,1,19.369,1.6,4.567,4.567,0,0,0,15.923,0a4.888,4.888,0,0,0-4.716,5.046A6.08,6.08,0,0,0,11.324,6.2,13.136,13.136,0,0,1,1.6.924,5.28,5.28,0,0,0,.959,3.471a5.144,5.144,0,0,0,2.1,4.2A4.518,4.518,0,0,1,.929,7.033V7.1a4.974,4.974,0,0,0,3.781,4.953,4.685,4.685,0,0,1-1.241.172,5.559,5.559,0,0,1-.891-0.078,4.776,4.776,0,0,0,4.409,3.5A9.059,9.059,0,0,1,1.134,17.8a9.112,9.112,0,0,1-1.139-.063A12.7,12.7,0,0,0,7.236,20c8.672,0,13.417-7.687,13.417-14.358,0-.219,0-0.437-0.015-0.656A10.556,10.556,0,0,0,23,2.377Z"/>
</svg>
